# xmcd
#
# Track frame offsets:
#	150
#	21780
#	33941
#	51814
#	64365
#	79905
#	88704
#	106006
#	119623
#	133645
#	148003
#	167300
#	182499
#	190685
#	214500
#
# Disc length: 3160 seconds
#
# Revision: 1
# Processed by: cddbd v1.4PL0 Copyright (c) Steve Scherf et al.
# Submitted via: audiograbber 1.81.03
#
DISCID=c50c560f
DTITLE=Nothin' Fancy - Field of Dreams
DYEAR=2000
DGENRE=Bluegrass
TTITLE0=Tears of a Miner
TTITLE1=Darby's Castle
TTITLE2=Heaven Got an Angel
TTITLE3=Hot Corn Cold Corn
TTITLE4=Brown Mt. Light
TTITLE5=Swim That River Jordan
TTITLE6=The Leaves Musn't Fall
TTITLE7=Old 2290
TTITLE8=Field of Dreams
TTITLE9=Will You Be Lonesome Too
TTITLE10=Die for Dixie
TTITLE11=Palms of Victory
TTITLE12=Shoot Out
TTITLE13=Wandering Music Man
TTITLE14=Turn the Page
EXTD=
EXTT0=
EXTT1=
EXTT2=
EXTT3=
EXTT4=
EXTT5=
EXTT6=
EXTT7=
EXTT8=
EXTT9=
EXTT10=
EXTT11=
EXTT12=
EXTT13=
EXTT14=
PLAYORDER=
